<svg xmlns="http://www.w3.org/2000/svg" width="81" height="81" viewBox="0 0 81 81"><g><g><path fill="#8bd8ed" d="M63.348 62.847a2.59 2.59 0 0 1-2.587-2.587 2.59 2.59 0 0 1 2.587-2.587 2.59 2.59 0 0 1 2.587 2.587h2.587c0-2.404-1.656-4.413-3.88-4.991v-2.77h-2.588v2.77c-2.225.578-3.88 2.587-3.88 4.99a5.18 5.18 0 0 0 5.174 5.175 2.59 2.59 0 0 1 2.587 2.587 2.59 2.59 0 0 1-2.587 2.588 2.59 2.59 0 0 1-2.587-2.588h-2.588c0 2.404 1.656 4.413 3.881 4.991v2.771h2.587v-2.77c2.225-.579 3.881-2.588 3.881-4.992a5.18 5.18 0 0 0-5.174-5.174z"/></g><g><path fill="#8bd8ed" d="M72.162 65.056V63.08h2.633v1.975z"/></g><g><path fill="#8bd8ed" d="M51.756 65.056V63.08h2.633v1.975z"/></g><g><path fill="#8bd8ed" d="M7.722 36.975v-7.762h7.762v7.762zm7.762 12.936v7.762H7.722V49.91zm-7.762-2.587v-7.762h7.762v7.762zm10.35-10.35v-7.761h7.76v7.762zm7.76 12.937v7.762h-7.76V49.91zm-7.76-2.587v-7.762h7.76v7.762zm18.11-7.762v7.762H28.42v-7.762zm-7.762-2.587v-7.762h7.762v7.762zm10.349-10.35v-7.76h7.762v7.76zm7.762 12.937v7.762h-7.762v-7.762zm-7.762-2.587v-7.762h7.762v7.762zM62.054 47.39a16.56 16.56 0 0 0-2.587.405V16.277H36.182v10.349H5.135V60.26H28.42V49.91h26.006c-4.388 2.763-7.412 7.484-7.83 12.937H2.549V8.515h5.174V9.81c0 2.14 1.741 3.88 3.881 3.88 2.14 0 3.88-1.74 3.88-3.88V8.515h2.588V9.81c0 2.14 1.741 3.88 3.88 3.88 2.14 0 3.882-1.74 3.882-3.88V8.515h2.587V9.81c0 2.14 1.741 3.88 3.88 3.88 2.14 0 3.882-1.74 3.882-3.88V8.515h2.587V9.81c0 2.14 1.741 3.88 3.88 3.88 2.14 0 3.882-1.74 3.882-3.88V8.515h2.587V9.81c0 2.14 1.741 3.88 3.88 3.88 2.14 0 3.882-1.74 3.882-3.88V8.515h5.174zM56.88 26.626h-7.762v-7.762h7.762zm0 10.349h-7.762v-7.762h7.762zm0 10.349h-7.762v-7.762h7.762zM10.31 4.634c0-.713.58-1.293 1.293-1.293s1.294.58 1.294 1.293V9.81c0 .713-.581 1.293-1.294 1.293-.713 0-1.294-.58-1.294-1.293zm10.348 0c0-.713.581-1.293 1.294-1.293.713 0 1.294.58 1.294 1.293V9.81c0 .713-.581 1.293-1.294 1.293-.713 0-1.294-.58-1.294-1.293zm10.35 0c0-.713.58-1.293 1.293-1.293s1.294.58 1.294 1.293V9.81c0 .713-.581 1.293-1.294 1.293-.713 0-1.294-.58-1.294-1.293zm10.348 0c0-.713.581-1.293 1.294-1.293.713 0 1.293.58 1.293 1.293V9.81c0 .713-.58 1.293-1.293 1.293s-1.294-.58-1.294-1.293zm10.35 0c0-.713.58-1.293 1.293-1.293s1.293.58 1.293 1.293V9.81c0 .713-.58 1.293-1.293 1.293s-1.294-.58-1.294-1.293zM64.64 47.39V5.928H56.88V4.634c0-2.14-1.742-3.88-3.881-3.88a3.886 3.886 0 0 0-3.881 3.88v1.294H46.53V4.634c0-2.14-1.742-3.88-3.881-3.88a3.886 3.886 0 0 0-3.881 3.88v1.294h-2.587V4.634c0-2.14-1.741-3.88-3.881-3.88a3.886 3.886 0 0 0-3.881 3.88v1.294h-2.587V4.634c0-2.14-1.741-3.88-3.881-3.88a3.886 3.886 0 0 0-3.88 3.88v1.294h-2.588V4.634c0-2.14-1.741-3.88-3.881-3.88a3.886 3.886 0 0 0-3.88 3.88v1.294H-.04v59.506h46.637c.663 8.669 7.914 15.524 16.75 15.524 4.034 0 7.936-1.45 10.986-4.084l-1.69-1.959a14.223 14.223 0 0 1-9.295 3.455c-7.846 0-14.23-6.384-14.23-14.23 0-7.845 6.384-14.23 14.23-14.23s14.23 6.385 14.23 14.23c0 3.281-1.085 6.363-3.138 8.914l2.017 1.622a16.866 16.866 0 0 0 3.708-10.535c0-8.837-6.855-16.088-15.524-16.751z"/></g></g></svg>