<svg xmlns="http://www.w3.org/2000/svg" width="54" height="54" viewBox="0 0 54 54"><g><g><path fill="#024c88" d="M52.4 42.027c-2.036-2.036-6.924-5.096-9.334-6.246-2.798-1.343-3.822-1.315-5.803.111-1.648 1.191-2.714 2.299-4.611 1.883-1.898-.401-5.637-3.24-9.265-6.855-3.629-3.628-6.454-7.367-6.855-9.265-.402-1.91.706-2.963 1.883-4.611 1.426-1.98 1.468-3.005.11-5.803-1.149-2.423-4.195-7.298-6.245-9.334C10.244-.129 9.787.315 8.665.717c0 0-1.661.664-3.31 1.758C3.32 3.832 2.186 4.968 1.382 6.67c-.79 1.703-1.703 4.875 2.95 13.156 3.753 6.69 7.437 11.758 12.907 17.214l.014.014.014.014c5.47 5.47 10.525 9.154 17.214 12.907 8.281 4.653 11.453 3.74 13.156 2.95 1.703-.79 2.839-1.925 4.196-3.975 1.094-1.648 1.759-3.31 1.759-3.31.402-1.121.859-1.578-1.191-3.614z"/></g></g></svg>