<svg xmlns="http://www.w3.org/2000/svg" width="36.42" height="29.591" viewBox="0 0 36.42 29.591">
  <path id="Path_26" data-name="Path 26" d="M34.3,43.609c2.465-.569,3.573-1.345,3.573-2.5V35.414C37.868,32.332,28.317,32,24.21,32c-12.327,0-13.658,2.39-13.658,3.414v2.98C7.389,38.976,6,39.8,6,41.105V46.8c0,.6.017,2.254,6.532,3.024-4.255.833-4.255,2.074-4.255,2.667v5.691c0,3.082,9.551,3.414,13.658,3.414s13.658-.332,13.658-3.414V55.536c6.812-.773,6.829-2.356,6.829-3.049V46.8C42.42,46.15,42.4,44.292,34.3,43.609Zm-.98,3.187V45.82a27.009,27.009,0,0,1,6.124.979,28.617,28.617,0,0,1-6.45,1,1.47,1.47,0,0,0,.326-1Zm-1.31-5.064a53.918,53.918,0,0,1-7.8.511c-.739,0-1.467-.011-2.239-.033-5.55-.184-8.431-.981-9.143-1.4V37.545c3.085,1.122,8.536,1.284,11.381,1.284,6.094,0,9.494-.584,11.381-1.3V40.8a11.164,11.164,0,0,1-3.586.936Zm-7.8-7.456a38.28,38.28,0,0,1,10.7,1.138,38.28,38.28,0,0,1-10.7,1.138,38.28,38.28,0,0,1-10.693-1.138A38.28,38.28,0,0,1,24.21,34.276ZM10.553,40.711v.394a1.494,1.494,0,0,0,.065.415,14.259,14.259,0,0,1-1.629-.409,13.688,13.688,0,0,1,1.564-.4ZM8.276,43.236c3.085,1.122,8.536,1.284,11.381,1.284.785,0,1.56-.011,2.345-.034h0c.717.023,1.457.034,2.208.034a59.439,59.439,0,0,0,6.829-.369V46.49c-.538.312-2.474.974-6.912,1.287a63.231,63.231,0,0,1-7.827.067c-4.885-.242-7.368-.957-8.024-1.35Zm6.829,8.493v.758a1.48,1.48,0,0,0,.188.785,21.834,21.834,0,0,1-4.032-.785A20.237,20.237,0,0,1,15.105,51.728Zm6.829,7.587c-6.616,0-10.492-.885-11.381-1.436V54.617c3.085,1.122,8.536,1.284,11.381,1.284,1.138,0,2.312-.031,3.449-.091h0c1.13.059,2.267.091,3.38.091,1.583,0,3.093-.068,4.553-.171v2.149C32.426,58.43,28.549,59.315,21.934,59.315Zm12.414-5.937c-1.715.16-3.65.246-5.585.246q-1.637,0-3.358-.09c-4.885-.242-7.368-.957-8.024-1.35V50.15c.761.026,1.527.06,2.276.06,1.567,0,3.1-.053,4.553-.158,1.457.1,2.986.158,4.553.158,2.845,0,8.3-.162,11.381-1.284v3.255C39.66,52.466,38.045,53.036,34.348,53.379Z" transform="translate(-6 -32)" fill="#8bd8ed"/>
</svg>
