<svg xmlns="http://www.w3.org/2000/svg" width="67.847" height="75.846" viewBox="0 0 67.847 75.846">
  <path id="Path_10" data-name="Path 10" d="M90.4,8H81.811V4.444A4.449,4.449,0,0,0,77.367,0H31.444A4.449,4.449,0,0,0,27,4.444V63.4a4.449,4.449,0,0,0,4.444,4.444h8.592V71.4a4.449,4.449,0,0,0,4.444,4.444H90.4A4.449,4.449,0,0,0,94.847,71.4V12.444A4.449,4.449,0,0,0,90.4,8Zm1.481,63.4A1.483,1.483,0,0,1,90.4,72.884H44.48A1.483,1.483,0,0,1,43,71.4V67.847H69.663a1.482,1.482,0,0,0,1.048-.434L81.377,56.747a1.478,1.478,0,0,0,.43-1.047h0V41.429a1.481,1.481,0,1,0-2.963,0V54.218H71.715a3.536,3.536,0,0,0-3.532,3.532v7.133H31.444A1.483,1.483,0,0,1,29.963,63.4V4.444a1.483,1.483,0,0,1,1.481-1.481H77.367a1.483,1.483,0,0,1,1.481,1.481v23.7a1.481,1.481,0,0,0,2.963,0V10.962H90.4a1.483,1.483,0,0,1,1.481,1.481ZM71.145,62.789V57.751a.57.57,0,0,1,.57-.57h5.038Z" transform="translate(-27)" fill="#8bd8ed"/>
</svg>
