<svg xmlns="http://www.w3.org/2000/svg" width="63.373" height="62.36" viewBox="0 0 63.373 62.36">
  <path id="Path_22" data-name="Path 22" d="M59.648,29.457V22.724a6.344,6.344,0,0,0-6.337-6.337H51.2V7.853a6.332,6.332,0,0,0-8.685-5.891l-9.8,3.917A18.975,18.975,0,0,0,.5,19.513,18.529,18.529,0,0,0,.7,21.5a4.758,4.758,0,0,0-.2,1.225v33.8A6.344,6.344,0,0,0,6.837,62.86H53.31a6.344,6.344,0,0,0,6.337-6.337V49.805a6.328,6.328,0,0,0,4.225-5.948v-8.45A6.328,6.328,0,0,0,59.648,29.457ZM44.071,5.885a2.11,2.11,0,0,1,2.9,1.967v8.534H38.208A18.836,18.836,0,0,0,35.5,9.31ZM19.512,4.726A14.787,14.787,0,1,1,4.725,19.513,14.787,14.787,0,0,1,19.512,4.726Zm33.8,53.909H6.837a2.115,2.115,0,0,1-2.112-2.112l.025-25.177A18.873,18.873,0,0,0,38.413,20.612h14.9a2.115,2.115,0,0,1,2.112,2.112v6.344H49.086a6.344,6.344,0,0,0-6.337,6.337v8.45a6.344,6.344,0,0,0,6.337,6.337h6.337v6.33A2.115,2.115,0,0,1,53.31,58.635Zm6.337-14.779a2.112,2.112,0,0,1-2.092,2.108l-.02,0-.042.008H49.086a2.115,2.115,0,0,1-2.112-2.112v-8.45a2.115,2.115,0,0,1,2.112-2.112h8.45a2.115,2.115,0,0,1,2.112,2.112Z" transform="translate(-0.5 -0.5)" fill="#8bd8ed"/>
</svg>
