<svg xmlns="http://www.w3.org/2000/svg" width="68.288" height="69.005" viewBox="0 0 68.288 69.005">
  <path id="Path_24" data-name="Path 24" d="M64.6,40.784H63.459V30.54a3.414,3.414,0,0,0-3.414-3.414H59.9l1.838-3.935a1.138,1.138,0,0,0-.553-1.513L17.857,1.477a1.138,1.138,0,0,0-1.511.55L4.579,27.24A3.414,3.414,0,0,0,2,30.54v36.42a3.414,3.414,0,0,0,3.414,3.414H60.045a3.414,3.414,0,0,0,3.414-3.414V56.718H64.6a5.7,5.7,0,0,0,5.691-5.691V46.474A5.7,5.7,0,0,0,64.6,40.784ZM17.926,4.022,59.191,23.256l-1.805,3.87H52.75a9.1,9.1,0,0,1-1.11-5.295,1.138,1.138,0,0,0-.651-1.138L25.164,8.647a1.138,1.138,0,0,0-1.294.234,9,9,0,0,1-7.359,2.68,1.131,1.131,0,0,0-1.145.651l-4.348,9.333a1.138,1.138,0,0,0,.234,1.293A9.069,9.069,0,0,1,13.7,27.126H7.144Zm10.459,23.1a4.541,4.541,0,1,1,8.8,0Zm7.284-7.3a6.829,6.829,0,0,0-9.617,7.3H16.03a11.352,11.352,0,0,0-2.618-5.32l3.693-7.927a11.252,11.252,0,0,0,7.8-2.845l24.42,11.381a11.381,11.381,0,0,0,.893,4.711h-10.7a6.8,6.8,0,0,0-3.857-7.3ZM61.183,66.961A1.138,1.138,0,0,1,60.045,68.1H5.414a1.138,1.138,0,0,1-1.138-1.138V30.54A1.138,1.138,0,0,1,5.414,29.4H60.045a1.138,1.138,0,0,1,1.138,1.138V40.784H55.492A5.7,5.7,0,0,0,49.8,46.474v4.553a5.7,5.7,0,0,0,5.691,5.691h5.691Zm6.829-15.934A3.414,3.414,0,0,1,64.6,54.441H55.492a3.414,3.414,0,0,1-3.414-3.414V46.474a3.414,3.414,0,0,1,3.414-3.414H64.6a3.414,3.414,0,0,1,3.414,3.414Z" transform="translate(-2 -1.37)" fill="#8bd8ed"/>
</svg>
