<?xml version="1.0" encoding="iso-8859-1"?>
<!-- Generator: Adobe Illustrator 18.0.0, SVG Export Plug-In . SVG Version: 6.00 Build 0)  -->
<!DOCTYPE svg PUBLIC "-//W3C//DTD SVG 1.1//EN" "http://www.w3.org/Graphics/SVG/1.1/DTD/svg11.dtd">
<svg version="1.1" id="Capa_1" xmlns="http://www.w3.org/2000/svg" xmlns:xlink="http://www.w3.org/1999/xlink" x="0px" y="0px"
	 viewBox="0 0 391.5 391.5" style="enable-background:new 0 0 391.5 391.5;" xml:space="preserve">
<g>
	<path d="M196.661,381.5h-7.999c-2.761,0-5,2.239-5,5s2.239,5,5,5h7.999c2.761,0,5-2.239,5-5S199.422,381.5,196.661,381.5z"/>
	<path d="M344.5,45.5h-17.75V27.75c0-2.761-2.239-5-5-5H304V5c0-2.761-2.239-5-5-5H93.661c-2.761,0-5,2.239-5,5s2.239,5,5,5H294v326
		H52V10h20.995c2.761,0,5-2.239,5-5s-2.239-5-5-5H47c-2.761,0-5,2.239-5,5v336c0,2.761,2.239,5,5,5h17.75v17.75c0,2.761,2.239,5,5,5
		H87.5v17.75c0,2.761,2.239,5,5,5h77.162c2.761,0,5-2.239,5-5s-2.239-5-5-5H97.5v-12.75h224.25c2.761,0,5-2.239,5-5v-99.654
		c0-2.761-2.239-5-5-5s-5,2.239-5,5v94.654h-242V346H299c2.761,0,5-2.239,5-5V32.75h12.75v204.345c0,2.761,2.239,5,5,5s5-2.239,5-5
		V55.5h12.75v326H213.662c-2.761,0-5,2.239-5,5s2.239,5,5,5H344.5c2.761,0,5-2.239,5-5v-336C349.5,47.739,347.261,45.5,344.5,45.5z"
		/>
	<path d="M88,287.724h170c2.761,0,5-2.239,5-5s-2.239-5-5-5H88c-2.761,0-5,2.239-5,5S85.239,287.724,88,287.724z"/>
	<path d="M88,214.581h170c2.761,0,5-2.239,5-5c0-2.761-2.239-5-5-5H88c-2.761,0-5,2.239-5,5C83,212.342,85.239,214.581,88,214.581z"
		/>
	<path d="M88,251.331h19.995c2.761,0,5-2.239,5-5c0-2.761-2.239-5-5-5H88c-2.761,0-5,2.239-5,5
		C83,249.092,85.239,251.331,88,251.331z"/>
	<path d="M125.3,241.331c-2.761,0-5,2.239-5,5c0,2.761,2.239,5,5,5h10.661c2.761,0,5-2.239,5-5c0-2.761-2.239-5-5-5H125.3z"/>
	<path d="M258,241.331H152.995c-2.761,0-5,2.239-5,5c0,2.761,2.239,5,5,5H258c2.761,0,5-2.239,5-5
		C263,243.57,260.761,241.331,258,241.331z"/>
	<path d="M88.214,168.009c-2.761,0-5,2.239-5,5c0,2.761,2.239,5,5,5h91.448c2.761,0,5-2.239,5-5c0-2.761-2.239-5-5-5H88.214z"/>
	<path d="M258,168.009h-61.338c-2.761,0-5,2.239-5,5c0,2.761,2.239,5,5,5H258c2.761,0,5-2.239,5-5
		C263,170.248,260.761,168.009,258,168.009z"/>
	<path d="M88,141.438h170c2.761,0,5-2.239,5-5c0-2.761-2.239-5-5-5H88c-2.761,0-5,2.239-5,5C83,139.199,85.239,141.438,88,141.438z"
		/>
	<path d="M258,94.759h-31.328c-2.761,0-5,2.239-5,5c0,2.761,2.239,5,5,5H258c2.761,0,5-2.239,5-5
		C263,96.998,260.761,94.759,258,94.759z"/>
	<path d="M88.059,104.759H207.41c2.761,0,5-2.239,5-5c0-2.761-2.239-5-5-5H88.059c-2.761,0-5,2.239-5,5
		C83.059,102.521,85.298,104.759,88.059,104.759z"/>
	<path d="M258,58.276h-68.667c-2.761,0-5,2.239-5,5c0,2.761,2.239,5,5,5H258c2.761,0,5-2.239,5-5
		C263,60.515,260.761,58.276,258,58.276z"/>
</g>
<g>
</g>
<g>
</g>
<g>
</g>
<g>
</g>
<g>
</g>
<g>
</g>
<g>
</g>
<g>
</g>
<g>
</g>
<g>
</g>
<g>
</g>
<g>
</g>
<g>
</g>
<g>
</g>
<g>
</g>
</svg>
