<svg xmlns="http://www.w3.org/2000/svg" width="69" height="76" viewBox="0 0 69 76"><g><g><path fill="#8bd8ed" d="M55.055 33.776a1.486 1.486 0 0 0-1.047-.434c-.39 0-.772.157-1.047.434a1.493 1.493 0 0 0-.434 1.047c0 .39.158.77.434 1.048.275.275.658.434 1.047.434.39 0 .772-.159 1.047-.434.276-.276.435-.658.435-1.048a1.49 1.49 0 0 0-.435-1.047z"/></g><g><path fill="#8bd8ed" d="M33.407 45.834H23.344a1.481 1.481 0 0 0 0 2.963h10.063a1.481 1.481 0 0 0 0-2.963z"/></g><g><path fill="#8bd8ed" d="M34.454 34.713a1.493 1.493 0 0 0-1.048-.434c-.39 0-.771.159-1.047.434a1.493 1.493 0 0 0-.434 1.048c0 .39.159.771.434 1.047.276.276.658.434 1.047.434a1.49 1.49 0 0 0 1.048-.434c.275-.276.434-.658.434-1.047 0-.39-.159-.772-.434-1.048z"/></g><g><path fill="#8bd8ed" d="M45.232 26.576H10.936a1.481 1.481 0 0 0 0 2.963h34.296a1.481 1.481 0 0 0 0-2.963z"/></g><g><path fill="#8bd8ed" d="M45.233 18.873H10.936a1.481 1.481 0 0 0 0 2.963h34.297a1.481 1.481 0 0 0 0-2.963z"/></g><g><path fill="#8bd8ed" d="M45.232 11.17H10.936a1.481 1.481 0 0 0 0 2.963h34.296a1.481 1.481 0 0 0 0-2.963z"/></g><g><path fill="#8bd8ed" d="M44.824 62.7v-5.038a.57.57 0 0 1 .57-.57h5.038zm20.739 8.614c0 .817-.665 1.481-1.481 1.481H18.159a1.483 1.483 0 0 1-1.481-1.481v-3.555h26.664c.386 0 .764-.151 1.048-.434l10.666-10.666c.283-.283.43-.662.43-1.048h.004v-14.27a1.481 1.481 0 0 0-2.963 0V54.13h-7.134a3.536 3.536 0 0 0-3.532 3.532v7.134H5.123a1.483 1.483 0 0 1-1.482-1.482V4.356c0-.817.665-1.482 1.482-1.482h45.922c.817 0 1.482.665 1.482 1.482v23.702a1.481 1.481 0 0 0 2.963 0V10.874h8.592c.816 0 1.48.664 1.48 1.481zM64.082 7.91H55.49V4.356a4.45 4.45 0 0 0-4.445-4.444H5.123A4.45 4.45 0 0 0 .679 4.356v58.958a4.45 4.45 0 0 0 4.444 4.445h8.592v3.555a4.45 4.45 0 0 0 4.444 4.444h45.923a4.45 4.45 0 0 0 4.444-4.444V12.355a4.45 4.45 0 0 0-4.444-4.444z"/></g><g><path fill="#8bd8ed" d="M14.011 49.686a2.373 2.373 0 0 1-2.37-2.37 2.373 2.373 0 0 1 2.37-2.37 2.373 2.373 0 0 1 2.37 2.37 2.373 2.373 0 0 1-2.37 2.37zm0-7.704a5.339 5.339 0 0 0-5.333 5.333 5.339 5.339 0 0 0 5.333 5.333 5.339 5.339 0 0 0 5.333-5.333 5.339 5.339 0 0 0-5.333-5.333z"/></g></g></svg>