<svg xmlns="http://www.w3.org/2000/svg" width="69" height="70" viewBox="0 0 69 70"><g><g><path fill="#8bd8ed" d="M65.903 50.41a3.414 3.414 0 0 1-3.415 3.414h-9.105a3.414 3.414 0 0 1-3.414-3.414v-4.553a3.414 3.414 0 0 1 3.414-3.414h9.105a3.414 3.414 0 0 1 3.415 3.414zm-6.83 15.934c0 .628-.509 1.138-1.137 1.138H3.305c-.629 0-1.138-.51-1.138-1.138v-36.42c0-.63.51-1.139 1.138-1.139h54.63c.63 0 1.139.51 1.139 1.138v10.243h-5.69a5.698 5.698 0 0 0-5.692 5.691v4.553a5.698 5.698 0 0 0 5.691 5.69h5.69zM33.56 19.205a6.829 6.829 0 0 0-9.617 7.304H13.92a11.352 11.352 0 0 0-2.617-5.32l3.693-7.927c2.87.082 5.66-.936 7.804-2.845l24.42 11.381c-.04 1.616.265 3.222.893 4.71H37.415a6.801 6.801 0 0 0-3.857-7.303zm-7.284 7.304a4.541 4.541 0 1 1 8.799 0zM15.816 3.405l41.266 19.234-1.805 3.87H50.64a9.095 9.095 0 0 1-1.11-5.295 1.138 1.138 0 0 0-.65-1.138L23.054 8.03a1.138 1.138 0 0 0-1.294.234 9 9 0 0 1-7.36 2.68 1.131 1.131 0 0 0-1.144.652l-4.348 9.333c-.203.437-.11.955.235 1.292a9.069 9.069 0 0 1 2.442 4.288H5.035zm46.672 36.761H61.35V29.923a3.414 3.414 0 0 0-3.414-3.414h-.147l1.838-3.935a1.138 1.138 0 0 0-.553-1.512L15.747.86a1.138 1.138 0 0 0-1.511.55L2.47 26.622a3.414 3.414 0 0 0-2.58 3.3v36.42a3.414 3.414 0 0 0 3.415 3.415h54.63a3.414 3.414 0 0 0 3.415-3.414V56.1h1.138a5.698 5.698 0 0 0 5.69-5.69v-4.553a5.698 5.698 0 0 0-5.69-5.69z"/></g><g><path fill="#8bd8ed" d="M55.66 49.271a1.138 1.138 0 1 1 0-2.276 1.138 1.138 0 0 1 0 2.276zm0-4.552a3.414 3.414 0 1 0 0 6.829 3.414 3.414 0 0 0 0-6.83z"/></g><g><path fill="#8bd8ed" d="M32.79 56.993c-1.714.16-3.65.245-5.584.245-1.091 0-2.21-.03-3.357-.09-4.885-.242-7.369-.957-8.024-1.35v-2.034c.761.026 1.527.06 2.276.06 1.567 0 3.097-.054 4.553-.158 1.456.104 2.986.158 4.552.158 2.845 0 8.296-.162 11.381-1.284v3.255c-.483.285-2.098.855-5.796 1.198zm-12.413 5.936c-6.616 0-10.492-.885-11.381-1.436V58.23c3.085 1.122 8.536 1.284 11.381 1.284 1.138 0 2.312-.031 3.449-.091 1.13.059 2.267.09 3.38.09 1.583 0 3.094-.068 4.553-.17v2.149c-.89.55-4.767 1.436-11.382 1.436zm-6.829-7.587v.758a1.48 1.48 0 0 0 .188.786 21.834 21.834 0 0 1-4.032-.786 20.238 20.238 0 0 1 3.844-.758zM6.72 46.85c3.085 1.123 8.536 1.284 11.381 1.284.785 0 1.56-.011 2.345-.034.717.023 1.456.034 2.208.034a59.44 59.44 0 0 0 6.828-.368v2.338c-.538.312-2.474.975-6.912 1.288-2.605.184-5.219.206-7.826.067-4.885-.243-7.369-.957-8.024-1.35zm2.276-2.524v.394c.002.14.024.28.065.415a14.26 14.26 0 0 1-1.629-.408 13.688 13.688 0 0 1 1.564-.4zm13.658-6.435a38.28 38.28 0 0 1 10.698 1.138 38.28 38.28 0 0 1-10.698 1.138c-3.6.126-7.2-.257-10.693-1.138a38.28 38.28 0 0 1 10.693-1.138zm7.795 7.456c-2.583.359-5.188.53-7.795.511a79.07 79.07 0 0 1-2.24-.033c-5.549-.184-8.43-.981-9.142-1.404v-3.261c3.086 1.122 8.536 1.284 11.382 1.284 6.093 0 9.494-.584 11.38-1.299v3.266c-1.134.51-2.346.826-3.585.936zm1.31 5.064v-.976c2.072.09 4.127.419 6.124.979a28.616 28.616 0 0 1-6.45.997 1.47 1.47 0 0 0 .326-1zm4.552-5.691v-5.69c0-3.083-9.551-3.415-13.657-3.415-12.328 0-13.658 2.39-13.658 3.414v2.98c-3.164.581-4.553 1.409-4.553 2.71v5.692c0 .6.017 2.253 6.532 3.024-4.255.833-4.255 2.073-4.255 2.666v5.69c0 3.083 9.55 3.415 13.657 3.415 4.107 0 13.658-.332 13.658-3.414v-2.642c6.812-.773 6.829-2.356 6.829-3.049v-5.69c0-.646-.016-2.504-8.125-3.187 2.465-.57 3.572-1.346 3.572-2.504z"/></g></g></svg>