<svg xmlns="http://www.w3.org/2000/svg" width="64" height="63" viewBox="0 0 64 63"><g><g><path fill="#8bd8ed" d="M59.316 44.11a2.112 2.112 0 0 1-2.092 2.108l-.02-.004-.043.008h-8.407a2.115 2.115 0 0 1-2.113-2.112v-8.45a2.115 2.115 0 0 1 2.113-2.112h8.45a2.115 2.115 0 0 1 2.112 2.112zM6.506 58.889a2.115 2.115 0 0 1-2.113-2.113L4.417 31.6a18.873 18.873 0 0 0 33.664-10.734h14.897a2.115 2.115 0 0 1 2.113 2.113v6.344h-6.337a6.344 6.344 0 0 0-6.338 6.337v8.45a6.344 6.344 0 0 0 6.338 6.337h6.337v6.33a2.115 2.115 0 0 1-2.113 2.113zM19.18 4.98c8.166 0 14.787 6.62 14.787 14.787 0 8.167-6.62 14.787-14.787 14.787-8.167 0-14.787-6.62-14.787-14.787.01-8.163 6.624-14.777 14.787-14.787zm24.559 1.16a2.11 2.11 0 0 1 2.902 1.966v8.535h-8.766a18.836 18.836 0 0 0-2.707-7.077zM59.316 29.71v-6.733a6.344 6.344 0 0 0-6.338-6.337h-2.112V8.106a6.332 6.332 0 0 0-8.685-5.89l-9.802 3.917A18.975 18.975 0 0 0 .168 19.767c.031.665.098 1.328.2 1.986-.12.398-.187.81-.2 1.225v33.798a6.344 6.344 0 0 0 6.337 6.338h46.473a6.344 6.344 0 0 0 6.338-6.338V50.06a6.328 6.328 0 0 0 4.224-5.948v-8.45a6.328 6.328 0 0 0-4.224-5.95z"/></g><g><path fill="#8bd8ed" d="M12.842 21.88h4.225v4.224a2.112 2.112 0 1 0 4.225 0V21.88h4.225a2.112 2.112 0 1 0 0-4.224h-4.225V13.43a2.112 2.112 0 1 0-4.225 0v4.225h-4.225a2.112 2.112 0 1 0 0 4.224z"/></g></g></svg>